<?xml version="1.0" standalone="no"?>
<!DOCTYPE svg PUBLIC "-//W3C//DTD SVG 20010904//EN"
 "http://www.w3.org/TR/2001/REC-SVG-20010904/DTD/svg10.dtd">
<svg version="1.0" xmlns="http://www.w3.org/2000/svg"
 width="1080.000000pt" height="1080.000000pt" viewBox="0 0 1080.000000 1080.000000"
 preserveAspectRatio="xMidYMid meet">

<g transform="translate(0.000000,1080.000000) scale(0.100000,-0.100000)"
fill="#000000" stroke="none">
<path d="M9105 10146 c-79 -36 -154 -137 -155 -208 0 -70 72 -174 149 -212 83
-42 92 -41 191 11 l90 48 0 93 0 94 -92 99 c-58 61 -101 99 -113 99 -11 0 -43
-11 -70 -24z"/>
<path d="M3953 9518 c-39 -40 -44 -51 -69 -161 l-28 -117 59 -85 c32 -47 64
-90 72 -96 7 -6 41 -12 76 -12 49 -1 82 7 145 32 45 18 82 35 82 36 0 2 -23
11 -51 20 -28 9 -48 19 -45 22 3 3 31 11 63 17 l58 12 3 119 3 119 -48 48
c-43 43 -52 48 -93 48 -40 0 -90 11 -165 35 -15 4 -31 -5 -62 -37z m94 -200
c-3 -7 -5 -2 -5 12 0 14 2 19 5 13 2 -7 2 -19 0 -25z m90 -90 c-3 -7 -5 -2 -5
12 0 14 2 19 5 13 2 -7 2 -19 0 -25z"/>
<path d="M5175 9168 c-38 -11 -115 -33 -169 -49 -54 -16 -108 -29 -120 -29
-11 0 -44 12 -73 26 -28 15 -59 24 -68 21 -25 -10 -29 -36 -10 -57 10 -11 13
-20 8 -20 -6 0 -16 6 -22 14 -11 13 -17 12 -47 -6 l-34 -20 -75 25 c-43 15
-72 21 -68 14 3 -7 17 -29 31 -50 13 -22 22 -41 19 -43 -2 -3 -25 5 -51 16
-57 24 -65 24 -102 5 -20 -11 -56 -15 -120 -14 -50 1 -96 -1 -102 -5 -6 -3
-13 -20 -17 -36 -8 -34 -31 -55 -109 -96 -54 -28 -55 -28 -75 -10 -12 11 -21
14 -21 9 0 -6 7 -16 15 -23 14 -12 22 -90 10 -90 -3 0 -23 9 -45 20 -22 11
-43 20 -48 20 -5 0 -17 -18 -27 -40 -10 -22 -20 -40 -22 -40 -2 0 -15 7 -29
16 -13 9 -26 15 -28 13 -1 -2 -13 -20 -26 -39 -13 -19 -32 -41 -42 -48 -10 -7
-18 -18 -18 -24 0 -6 9 -3 20 7 20 18 22 18 71 -5 28 -13 52 -27 55 -31 2 -4
-14 -46 -38 -93 l-42 -84 34 -29 c51 -43 59 -46 85 -29 l24 16 -25 72 c-13 39
-22 74 -19 76 9 9 66 -51 85 -88 10 -19 28 -69 40 -110 l23 -75 14 35 c13 31
30 43 170 115 86 44 162 86 170 93 18 19 16 34 -4 29 -71 -20 -88 -18 -106 13
l-18 30 -111 0 c-90 0 -109 3 -105 14 4 9 -9 19 -39 31 -24 9 -44 18 -44 21 0
2 12 28 27 59 19 39 33 55 47 55 11 0 53 16 93 37 60 29 89 37 149 41 41 2 74
1 74 -2 0 -14 -61 -95 -86 -115 l-27 -21 23 -52 c26 -62 33 -68 81 -68 24 0
42 -7 57 -22 11 -13 28 -29 36 -36 19 -15 12 -60 -12 -79 -9 -7 -13 -16 -9
-20 4 -3 15 1 25 10 24 22 90 23 98 2 4 -8 14 -15 23 -15 12 1 10 6 -9 23 -24
21 -60 70 -60 81 0 3 22 8 49 12 70 9 78 16 56 51 -9 15 -27 36 -39 45 -11 9
-17 20 -13 24 4 4 13 -1 21 -11 14 -19 16 -19 85 4 59 19 76 21 102 12 49 -17
88 -14 224 21 114 28 129 30 165 18 40 -13 66 -11 154 13 41 11 52 19 59 43
13 38 12 38 39 21 44 -29 88 -29 181 -3 133 39 198 34 211 -18 5 -22 10 -24
39 -19 21 3 46 -1 65 -11 42 -22 59 -20 114 9 54 29 90 32 108 10 10 -13 10
-19 -4 -33 -9 -10 -16 -22 -16 -25 0 -12 133 -6 170 7 31 11 41 10 95 -12 33
-13 89 -29 125 -34 35 -6 128 -32 204 -60 156 -55 168 -54 226 5 31 32 43 28
14 -4 -27 -30 -11 -49 42 -49 42 0 52 -5 95 -45 54 -50 81 -56 116 -23 13 12
23 17 23 11 0 -6 -7 -17 -16 -24 -15 -12 -14 -15 6 -31 19 -15 42 -18 138 -18
l116 0 -34 -35 c-18 -19 -31 -37 -28 -41 4 -3 53 -46 110 -94 91 -79 104 -87
112 -70 14 31 38 33 64 6 28 -27 24 -55 -8 -63 -17 -5 -20 -14 -20 -69 l0 -64
34 0 c106 0 161 -25 120 -55 -11 -7 -16 -17 -12 -21 4 -4 15 -1 23 6 14 11 20
8 46 -23 20 -24 44 -40 72 -48 53 -14 70 -26 107 -78 23 -31 48 -50 96 -72 56
-25 68 -35 82 -69 l17 -40 93 0 c50 0 92 -2 92 -5 0 -4 -7 -19 -15 -35 l-15
-29 92 -65 c176 -122 283 -261 483 -624 61 -111 66 -124 52 -140 -10 -11 -12
-24 -7 -37 5 -11 9 -86 9 -167 1 -117 5 -159 21 -210 11 -34 24 -115 30 -178
11 -128 15 -147 58 -240 16 -36 44 -122 62 -192 18 -71 37 -128 42 -128 5 0
22 7 38 15 17 9 30 14 30 12 0 -2 -9 -30 -20 -62 -11 -32 -20 -62 -20 -67 0
-24 36 3 133 100 l108 108 5 123 c4 109 2 128 -17 169 -21 49 -28 108 -33 283
-2 97 -5 110 -33 160 -40 70 -81 174 -128 324 -20 66 -50 154 -66 196 -25 64
-34 78 -64 92 l-35 17 20 40 c11 21 20 46 20 54 0 8 -29 40 -65 72 -62 54 -65
58 -49 76 10 10 15 19 13 21 -2 1 -21 10 -41 20 -21 9 -38 23 -38 30 0 26 -69
153 -122 224 -145 194 -278 328 -378 378 -60 30 -116 78 -135 115 -12 24 -22
28 -71 32 -49 4 -62 10 -86 37 -15 17 -28 36 -28 41 0 29 99 -5 146 -51 28
-27 36 -30 89 -27 l59 3 -117 88 -117 87 -32 -45 c-29 -41 -36 -45 -73 -45
-30 0 -43 -5 -53 -21 -7 -12 -16 -18 -19 -15 -4 3 2 15 12 26 16 18 17 21 1
44 -21 33 -40 42 -99 51 -27 4 -50 13 -52 19 -2 6 -6 23 -9 39 -6 24 -11 27
-46 27 -27 0 -42 -5 -49 -17 -5 -10 -13 -14 -17 -10 -4 4 1 13 11 21 17 12 15
16 -25 71 l-43 58 67 -7 c36 -4 66 -5 66 -1 0 3 -6 21 -14 39 -10 23 -27 40
-60 55 -57 28 -61 34 -35 56 19 18 18 19 -58 60 -202 107 -289 157 -310 177
l-23 22 -43 -42 c-40 -39 -82 -54 -100 -36 -8 9 21 54 52 80 17 14 21 23 13
28 -7 4 -15 0 -18 -8 -9 -23 -21 -20 -75 20 l-48 35 -21 -41 c-19 -37 -24 -41
-48 -35 -38 9 -38 12 -12 40 13 14 22 26 19 28 -2 2 -25 10 -51 17 -27 7 -81
32 -120 56 -86 51 -191 74 -331 74 -79 0 -94 -3 -114 -22 -13 -12 -23 -17 -23
-11 0 6 7 17 16 24 15 12 14 15 -6 31 -16 13 -39 18 -84 18 -51 0 -63 3 -74
20 -7 12 -18 18 -24 14 -7 -4 -3 -13 12 -24 l23 -17 -22 -22 c-11 -11 -28 -21
-36 -21 -24 0 -83 33 -155 86 -53 39 -76 49 -124 56 -64 9 -91 4 -118 -19 -19
-17 -52 -14 -106 8 -26 11 -36 11 -50 1 -47 -34 -61 -36 -85 -14 -31 29 -58
28 -87 -3 -29 -31 -34 -31 -47 -3 l-10 23 -12 -23 c-10 -18 -9 -22 4 -22 15 0
20 -12 8 -23 -3 -4 -11 0 -18 9 -10 15 -15 14 -53 -5 -23 -11 -46 -21 -51 -21
-6 0 -22 23 -36 50 -14 28 -26 50 -28 49 -1 0 -33 -9 -72 -21z m705 -58 c0 -5
-9 -10 -20 -10 -11 0 -20 5 -20 10 0 6 9 10 20 10 11 0 20 -4 20 -10z m-440
-80 c0 -18 -7 -20 -55 -20 -82 0 -73 19 15 33 14 3 28 5 33 6 4 0 7 -8 7 -19z
m133 -7 c-7 -2 -19 -2 -25 0 -7 3 -2 5 12 5 14 0 19 -2 13 -5z m-715 -83 l-22
-60 -60 0 c-60 1 -62 2 -88 40 -31 45 -30 46 38 25 63 -19 58 -20 77 20 14 28
22 35 46 35 l30 0 -21 -60z m-268 0 c0 -6 -28 -10 -65 -10 -37 0 -65 4 -65 10
0 6 28 10 65 10 37 0 65 -4 65 -10z m950 0 c0 -6 -35 -10 -85 -10 -50 0 -85 4
-85 10 0 6 35 10 85 10 50 0 85 -4 85 -10z m-1445 -81 c11 -17 -1 -21 -15 -4
-8 9 -8 15 -2 15 6 0 14 -5 17 -11z m255 -14 c-7 -9 -15 -13 -18 -10 -3 2 1
11 8 20 7 9 15 13 18 10 3 -2 -1 -11 -8 -20z m355 6 c-3 -6 -11 -11 -17 -11
-6 0 -6 6 2 15 14 17 26 13 15 -4z m512 -13 c-3 -7 -5 -2 -5 12 0 14 2 19 5
13 2 -7 2 -19 0 -25z m313 17 c0 -10 -11 -15 -35 -15 -56 0 -41 25 18 29 9 0
17 -6 17 -14z m-1030 -5 c0 -5 -18 -10 -40 -10 -22 0 -40 5 -40 10 0 6 18 10
40 10 22 0 40 -4 40 -10z m470 -40 c0 -5 -9 -10 -21 -10 -11 0 -17 5 -14 10 3
6 13 10 21 10 8 0 14 -4 14 -10z m-310 -40 c0 -16 -7 -20 -36 -20 -43 0 -42
22 2 31 16 4 30 7 32 8 1 0 2 -8 2 -19z m178 -8 c2 -7 -2 -10 -12 -6 -9 3 -16
11 -16 16 0 13 23 5 28 -10z m437 8 c4 -6 -12 -10 -39 -10 -25 0 -46 5 -46 10
0 6 18 10 39 10 22 0 43 -4 46 -10z m-347 -50 c12 -20 12 -21 -18 -5 -34 18
-38 25 -12 25 9 0 23 -9 30 -20z m2502 -85 c7 -8 8 -15 2 -15 -5 0 -15 7 -22
15 -7 8 -8 15 -2 15 5 0 15 -7 22 -15z m130 -24 c0 -13 -41 -41 -60 -41 -9 0
-27 8 -40 18 l-25 17 45 6 c72 10 80 10 80 0z m-3460 -101 c0 -11 -4 -20 -10
-20 -5 0 -10 9 -10 20 0 11 5 20 10 20 6 0 10 -9 10 -20z m3317 -12 c-3 -7 -5
-2 -5 12 0 14 2 19 5 13 2 -7 2 -19 0 -25z m250 -17 c13 -19 21 -36 19 -39 -7
-6 -126 61 -126 71 0 4 19 7 42 5 35 -2 46 -9 65 -37z m-197 -145 c0 -8 -4
-18 -10 -21 -5 -3 -10 3 -10 14 0 12 5 21 10 21 6 0 10 -6 10 -14z m349 -119
c-2 -2 -30 -18 -61 -36 l-58 -32 0 35 0 36 62 0 c34 0 59 -2 57 -3z m81 -97
c0 -11 -4 -20 -10 -20 -5 0 -10 9 -10 20 0 11 5 20 10 20 6 0 10 -9 10 -20z
m780 -604 c0 -8 -4 -18 -10 -21 -5 -3 -10 3 -10 14 0 12 5 21 10 21 6 0 10 -6
10 -14z m430 -786 c0 -11 -4 -20 -10 -20 -5 0 -10 9 -10 20 0 11 5 20 10 20 6
0 10 -9 10 -20z m37 -312 c-3 -7 -5 -2 -5 12 0 14 2 19 5 13 2 -7 2 -19 0 -25z"/>
<path d="M8218 8893 c-24 -27 -48 -80 -48 -104 0 -11 15 -36 34 -55 43 -43 79
-44 134 -4 l42 30 0 75 0 75 -73 0 c-58 0 -77 -4 -89 -17z"/>
<path d="M3288 8749 c-16 -11 -28 -25 -28 -31 0 -6 8 -4 18 5 36 33 62 16 62
-39 0 -15 6 -24 15 -24 11 0 15 12 15 46 0 41 -2 45 -20 39 -14 -5 -20 -2 -20
9 0 21 -9 20 -42 -5z"/>
<path d="M3477 8733 c-4 -7 1 -18 11 -25 10 -7 26 -33 36 -58 29 -73 58 -94
95 -71 12 8 12 13 -1 33 -14 22 -14 27 0 53 8 17 23 36 34 43 10 7 18 18 18
24 0 6 -10 2 -23 -10 -34 -32 -128 -32 -149 0 -9 14 -17 18 -21 11z"/>
<path d="M5678 8723 c6 -2 18 -2 25 0 6 3 1 5 -13 5 -14 0 -19 -2 -12 -5z"/>
<path d="M4030 8680 c0 -5 18 -10 40 -10 22 0 40 5 40 10 0 6 -18 10 -40 10
-22 0 -40 -4 -40 -10z"/>
<path d="M3300 8590 c0 -11 5 -20 10 -20 6 0 10 9 10 20 0 11 -4 20 -10 20 -5
0 -10 -9 -10 -20z"/>
<path d="M3353 8513 c-29 -21 -53 -42 -53 -46 0 -5 9 -22 21 -38 17 -24 28
-29 60 -29 39 0 39 0 38 38 0 20 -3 54 -7 75 l-7 38 -52 -38z"/>
<path d="M3213 8461 c-8 -13 -52 -32 -125 -55 -107 -33 -119 -40 -218 -119
-103 -83 -283 -261 -388 -383 -45 -53 -50 -63 -37 -74 8 -7 15 -18 15 -24 -1
-6 -9 -1 -19 12 -12 14 -30 22 -49 22 -25 0 -53 -23 -183 -157 -185 -192 -277
-309 -331 -422 -23 -47 -52 -101 -65 -119 -23 -31 -26 -32 -43 -17 -12 11 -20
13 -25 6 -3 -6 1 -14 9 -17 23 -9 20 -18 -21 -76 -32 -43 -38 -60 -39 -109 -3
-67 -26 -119 -83 -186 -22 -27 -44 -64 -47 -83 -4 -19 -12 -38 -18 -42 -8 -5
-7 -11 2 -20 9 -9 12 -9 12 5 0 19 15 23 25 6 4 -6 0 -16 -8 -22 -9 -7 -17
-28 -19 -47 -3 -29 -8 -36 -34 -43 -29 -8 -33 -15 -53 -91 -12 -44 -26 -110
-30 -146 -7 -47 -14 -68 -29 -78 -18 -12 -19 -18 -10 -50 6 -20 8 -80 5 -132
-3 -73 -1 -97 9 -105 12 -8 11 -19 -6 -68 -20 -55 -20 -77 -18 -615 3 -546 3
-558 25 -612 14 -35 28 -108 37 -195 21 -183 53 -314 120 -477 64 -159 80
-220 79 -313 0 -66 2 -73 39 -127 22 -31 52 -94 68 -141 35 -105 40 -115 102
-191 32 -39 89 -141 162 -286 82 -166 147 -279 248 -432 159 -239 204 -295
382 -474 72 -72 156 -157 186 -188 155 -162 195 -195 375 -304 234 -142 305
-188 388 -250 85 -65 107 -76 187 -97 36 -9 148 -52 250 -95 244 -104 586
-204 625 -182 14 7 36 3 87 -14 90 -32 155 -46 368 -84 96 -17 207 -40 245
-51 60 -18 111 -22 345 -29 200 -6 290 -13 330 -24 51 -15 56 -15 68 2 29 37
32 50 17 62 -8 7 -15 18 -15 24 1 6 10 0 20 -13 20 -23 24 -23 138 -19 122 5
158 15 196 57 18 20 18 22 1 41 -21 23 -9 27 15 5 15 -14 33 -11 173 26 l156
42 36 -27 35 -27 129 95 c102 75 136 95 167 98 27 2 40 8 42 21 3 14 -4 17
-37 17 -38 0 -40 2 -47 35 -3 19 -10 38 -15 40 -4 3 -52 -24 -106 -59 l-97
-65 -31 19 -31 19 -53 -59 -52 -60 -111 0 c-81 0 -119 4 -144 16 -32 15 -39
15 -97 -2 -52 -15 -93 -18 -263 -16 -171 2 -203 0 -214 -13 -7 -8 -17 -15 -23
-15 -5 0 -3 8 7 19 15 17 15 20 -3 42 l-19 23 -56 -48 -57 -49 -76 23 c-58 17
-90 21 -133 17 -48 -5 -63 -3 -103 18 -55 30 -103 32 -137 5 -32 -25 -53 -25
-104 -1 -29 14 -79 23 -171 29 -110 8 -138 14 -180 36 -27 14 -88 33 -135 42
-47 9 -86 17 -88 19 -2 2 18 32 43 66 42 58 45 65 29 74 -9 5 -47 30 -83 54
-51 34 -79 46 -130 53 -36 6 -93 19 -126 30 -33 10 -105 30 -160 44 -55 14
-118 36 -140 49 -38 23 -127 67 -240 119 -27 13 -98 57 -156 97 -59 41 -184
128 -279 193 -173 120 -285 218 -314 274 -9 17 -26 34 -38 38 -28 8 -247 202
-292 257 -18 23 -57 81 -85 129 -28 48 -132 196 -231 328 -231 310 -273 381
-369 623 -17 42 -47 109 -66 147 -46 91 -52 134 -26 185 30 56 26 90 -19 185
-56 114 -129 333 -139 416 -5 42 -5 104 1 156 l10 87 -32 56 c-40 70 -43 136
-9 210 17 39 24 77 29 170 5 91 12 129 27 159 19 37 19 42 5 87 -15 47 -14 54
32 291 46 235 49 245 86 294 l38 51 -25 25 -25 26 43 79 42 78 -28 43 -28 43
22 22 c21 21 23 21 35 5 7 -10 19 -18 26 -18 9 0 6 8 -8 23 -27 29 -30 77 -4
77 9 0 43 -6 75 -14 31 -7 57 -11 57 -7 0 3 -13 28 -30 56 l-29 49 40 43 c21
23 40 51 41 60 0 10 2 23 2 30 1 6 10 21 20 32 21 24 11 29 -13 7 -13 -11 -20
-12 -32 -3 -15 11 -15 17 1 65 13 41 31 65 76 107 51 46 61 52 71 38 18 -24
41 -8 53 35 10 39 25 52 58 52 10 0 29 21 45 50 32 58 65 86 118 102 22 6 46
22 56 37 28 43 124 140 203 205 52 43 69 62 57 64 -19 4 -22 18 -6 28 6 3 15
0 20 -7 7 -11 27 4 85 64 57 59 87 82 119 92 58 17 97 46 120 89 11 20 23 36
27 36 4 0 19 -18 35 -40 31 -44 58 -50 107 -25 31 16 42 12 48 -19 4 -22 12
-27 95 -56 60 -21 97 -47 118 -83 6 -11 46 -27 105 -43 l96 -26 0 -106 c2
-130 24 -197 90 -270 l44 -50 0 -129 c0 -175 -2 -173 177 -173 l130 0 49 117
50 118 68 33 c85 41 178 132 224 218 32 61 32 64 32 199 l0 137 -76 105 c-84
115 -107 134 -204 163 -36 11 -78 29 -95 40 -38 25 -81 25 -146 0 l-52 -21
-23 22 c-12 11 -27 20 -32 18 -5 -2 -51 -47 -101 -100 -83 -88 -91 -101 -91
-136 0 -37 -2 -40 -55 -66 l-54 -26 -30 36 c-30 36 -31 37 -45 18 -8 -11 -18
-16 -23 -12 -4 5 2 16 13 25 l21 17 -27 113 c-15 62 -29 115 -32 118 -4 3 -25
0 -48 -6 -49 -13 -56 -10 -39 21 6 13 13 70 14 128 2 58 6 114 10 124 7 16 1
15 -44 -8 -72 -36 -105 -25 -167 56 -49 64 -73 83 -116 93 -27 6 -28 5 -28
-32 l0 -39 -52 17 c-37 12 -57 25 -66 42 -24 50 -11 57 115 60 l114 3 -35 42
c-20 22 -36 49 -36 59 0 16 -1 16 -18 1 -10 -10 -26 -17 -35 -17 -10 0 -25 -9
-34 -20 -10 -11 -22 -20 -27 -20 -5 0 -1 9 9 20 18 19 18 22 1 56 -15 33 -15
38 -1 54 8 9 15 20 15 23 0 14 -15 7 -27 -12z m109 -116 c0 -5 -5 -11 -11 -13
-6 -2 -11 4 -11 13 0 9 5 15 11 13 6 -2 11 -8 11 -13z m-254 -103 c2 -7 -2
-10 -12 -6 -9 3 -16 11 -16 16 0 13 23 5 28 -10z m42 -43 c0 -14 -17 -10 -23
5 -4 10 -1 13 9 9 7 -3 14 -9 14 -14z m-130 -59 c0 -22 -4 -40 -10 -40 -5 0
-10 18 -10 40 0 22 5 40 10 40 6 0 10 -18 10 -40z m340 -64 c-20 -25 -30 -19
-30 21 l0 37 22 -21 c18 -18 19 -24 8 -37z m-50 -108 c15 -34 20 -66 20 -150
0 -60 -2 -108 -5 -108 -4 0 -20 7 -37 16 -17 9 -33 12 -37 7 -75 -109 -91
-121 -91 -69 0 13 -3 37 -6 55 l-6 31 -31 -22 -30 -21 -36 39 -36 39 113 3
112 3 0 37 c-1 41 -13 63 -47 80 -30 16 -33 15 -33 -12 0 -44 -10 -56 -46 -56
-26 0 -34 4 -34 18 0 9 -3 27 -6 40 -6 20 -3 22 39 22 40 0 46 3 57 30 15 35
52 59 93 60 23 0 31 -7 47 -42z m190 31 c0 -24 -59 -69 -89 -69 -40 0 -39 11
4 49 35 30 85 42 85 20z m80 -93 c0 -8 -4 -18 -10 -21 -5 -3 -10 3 -10 14 0
12 5 21 10 21 6 0 10 -6 10 -14z m44 -131 c-7 -16 -24 -21 -24 -6 0 8 7 13 27
20 1 1 0 -6 -3 -14z m-617 -102 c-3 -10 -5 -4 -5 12 0 17 2 24 5 18 2 -7 2
-21 0 -30z m650 -5 c-3 -7 -5 -2 -5 12 0 14 2 19 5 13 2 -7 2 -19 0 -25z
m-132 13 c3 -5 1 -12 -5 -16 -5 -3 -10 1 -10 9 0 18 6 21 15 7z m-639 -58
c-10 -10 -19 5 -10 18 6 11 8 11 12 0 2 -7 1 -15 -2 -18z m224 17 c0 -5 -9
-10 -20 -10 -11 0 -20 5 -20 10 0 6 9 10 20 10 11 0 20 -4 20 -10z m-443 -52
c-3 -7 -5 -2 -5 12 0 14 2 19 5 13 2 -7 2 -19 0 -25z m183 18 c0 -8 -14 -26
-32 -41 -24 -20 -33 -23 -39 -13 -10 16 -12 52 -2 61 13 14 73 7 73 -7z m78
-22 c-4 -3 -12 5 -18 18 -12 22 -12 22 6 6 10 -10 15 -20 12 -24z m782 16 c0
-11 -4 -20 -10 -20 -5 0 -10 9 -10 20 0 11 5 20 10 20 6 0 10 -9 10 -20z
m-1247 -7 c-7 -2 -19 -2 -25 0 -7 3 -2 5 12 5 14 0 19 -2 13 -5z m114 -95 c-3
-7 -5 -2 -5 12 0 14 2 19 5 13 2 -7 2 -19 0 -25z m-335 10 c-9 -9 -15 -9 -24
0 -9 9 -7 12 12 12 19 0 21 -3 12 -12z m93 -38 c3 -5 -3 -10 -14 -10 -12 0
-21 5 -21 10 0 6 6 10 14 10 8 0 18 -4 21 -10z m175 0 c0 -5 -9 -10 -20 -10
-11 0 -20 5 -20 10 0 6 9 10 20 10 11 0 20 -4 20 -10z m330 -5 c-7 -9 -15 -13
-17 -11 -7 7 7 26 19 26 6 0 6 -6 -2 -15z m-40 -40 c-7 -9 -15 -13 -17 -11 -7
7 7 26 19 26 6 0 6 -6 -2 -15z m140 -40 c0 -9 -6 -12 -15 -9 -8 4 -12 10 -9
15 8 14 24 10 24 -6z m-570 -45 c0 -11 -4 -20 -10 -20 -5 0 -10 9 -10 20 0 11
5 20 10 20 6 0 10 -9 10 -20z m337 -12 c-3 -7 -5 -2 -5 12 0 14 2 19 5 13 2
-7 2 -19 0 -25z m-207 -53 c0 -25 -4 -45 -10 -45 -5 0 -10 20 -10 45 0 25 5
45 10 45 6 0 10 -20 10 -45z m-467 18 c-7 -2 -21 -2 -30 0 -10 3 -4 5 12 5 17
0 24 -2 18 -5z m189 -114 c-38 -94 -50 -98 -51 -17 -1 28 7 46 30 73 54 61 61
44 21 -56z m95 59 c-3 -7 -5 -2 -5 12 0 14 2 19 5 13 2 -7 2 -19 0 -25z m313
12 c0 -11 -4 -20 -10 -20 -5 0 -10 9 -10 20 0 11 5 20 10 20 6 0 10 -9 10 -20z
m-520 -105 c0 -25 -4 -45 -10 -45 -5 0 -10 20 -10 45 0 25 5 45 10 45 6 0 10
-20 10 -45z m215 25 c3 -5 2 -10 -4 -10 -5 0 -13 5 -16 10 -3 6 -2 10 4 10 5
0 13 -4 16 -10z m178 -7 c-7 -2 -19 -2 -25 0 -7 3 -2 5 12 5 14 0 19 -2 13 -5z
m-112 -54 c34 -37 30 -49 -17 -49 -33 0 -34 1 -34 40 0 48 12 50 51 9z m-236
-70 c0 -9 -13 -15 -32 -17 -39 -4 -48 24 -10 31 31 6 42 2 42 -14z m135 -38
c0 -12 -8 -16 -42 -25 -24 -5 -28 -3 -28 14 0 16 7 20 35 20 19 0 35 -4 35 -9z
m-307 -8 c-7 -2 -19 -2 -25 0 -7 3 -2 5 12 5 14 0 19 -2 13 -5z m7 -173 c0 -5
-9 -10 -20 -10 -11 0 -20 5 -20 10 0 6 9 10 20 10 11 0 20 -4 20 -10z m-97
-47 c-7 -2 -19 -2 -25 0 -7 3 -2 5 12 5 14 0 19 -2 13 -5z m196 -108 c11 -38
19 -70 18 -71 -1 -1 -15 -4 -32 -6 l-30 -3 -3 69 c-5 121 13 126 47 11z m-253
-73 c-18 -16 -18 -16 -6 6 6 13 14 21 18 18 3 -4 -2 -14 -12 -24z m-56 -81 c0
-11 9 -22 20 -26 41 -13 79 -92 51 -109 -7 -5 -52 24 -110 71 -2 1 4 12 14 23
16 18 16 20 1 26 -13 5 -14 9 -5 20 16 20 29 17 29 -5z m243 2 c-7 -2 -19 -2
-25 0 -7 3 -2 5 12 5 14 0 19 -2 13 -5z m-293 -39 c0 -8 -4 -12 -10 -9 -5 3
-10 10 -10 16 0 5 5 9 10 9 6 0 10 -7 10 -16z m287 -56 c-3 -7 -5 -2 -5 12 0
14 2 19 5 13 2 -7 2 -19 0 -25z m-44 -115 c2 -48 -4 -72 -27 -121 -33 -68 -46
-78 -46 -32 0 16 -5 51 -11 79 -10 49 -10 51 27 100 22 29 42 47 47 42 5 -5 9
-35 10 -68z m-220 31 l54 -26 -16 -58 c-9 -32 -24 -67 -34 -78 -17 -19 -17
-21 -2 -24 15 -3 15 -5 -4 -22 -21 -19 -21 -19 -21 2 0 16 -6 22 -21 22 -14 0
-25 11 -35 35 -13 31 -13 39 1 65 8 16 15 47 15 70 0 22 2 40 5 40 2 0 29 -12
58 -26z m47 -169 c10 -12 10 -15 -4 -15 -9 0 -16 7 -16 15 0 8 2 15 4 15 2 0
9 -7 16 -15z m-46 -119 c9 -27 14 -51 12 -53 -2 -3 -114 82 -136 103 -2 3 9
16 25 29 l30 24 26 -27 c15 -15 34 -49 43 -76z m156 35 c0 -29 -22 -61 -41
-61 -5 0 -9 -22 -9 -50 0 -27 -3 -50 -7 -50 -5 1 -23 14 -42 30 l-33 28 41 21
c39 20 41 24 41 66 0 41 2 45 25 45 21 0 25 -5 25 -29z m-327 -90 l-22 -18 38
-37 c20 -20 40 -36 44 -36 4 0 7 20 7 45 0 25 3 45 8 45 4 0 21 -22 38 -48 17
-26 39 -60 49 -76 l19 -28 -52 26 c-28 14 -55 26 -60 26 -5 0 -27 -22 -49 -50
l-40 -49 -24 27 c-68 75 -67 64 -8 131 29 34 58 61 64 61 5 -1 0 -9 -12 -19z
m214 -173 c-3 -7 -5 -2 -5 12 0 14 2 19 5 13 2 -7 2 -19 0 -25z m-74 -35 c-7
-2 -19 -2 -25 0 -7 3 -2 5 12 5 14 0 19 -2 13 -5z"/>
<path d="M7880 8474 c0 -13 58 -69 65 -63 2 3 -11 21 -30 39 -19 19 -35 29
-35 24z"/>
<path d="M7930 8346 c-11 -15 -9 -21 15 -46 24 -25 36 -30 79 -30 37 0 55 -5
73 -22 41 -38 24 -5 -25 49 -38 43 -55 54 -87 59 -31 4 -44 2 -55 -10z"/>
<path d="M3827 8223 c-11 -10 -8 -43 3 -43 6 0 10 11 10 25 0 26 -2 29 -13 18z"/>
<path d="M4230 8179 c-44 -18 -70 -50 -70 -86 l0 -33 60 0 60 0 0 65 c0 69 -3
72 -50 54z"/>
<path d="M4864 8048 c-43 -45 -54 -65 -72 -130 -12 -42 -21 -82 -21 -90 1 -7
48 -57 105 -111 l103 -98 109 55 109 56 22 96 22 96 -73 82 c-40 44 -77 84
-83 88 -5 4 -46 8 -90 8 l-81 0 -50 -52z"/>
<path d="M3696 8003 c-14 -4 -17 -11 -12 -35 3 -17 6 -34 6 -39 0 -19 17 -7
53 36 l38 45 -33 -1 c-18 -1 -41 -3 -52 -6z"/>
<path d="M6980 7968 c-19 -5 -59 -16 -87 -24 l-53 -15 0 -100 c0 -55 5 -109
11 -121 14 -26 68 -48 121 -48 37 0 51 7 101 51 56 49 57 52 57 103 0 50 -2
54 -57 108 -56 53 -59 55 -93 46z"/>
<path d="M3730 7905 c7 -8 17 -15 22 -15 6 0 5 7 -2 15 -7 8 -17 15 -22 15 -6
0 -5 -7 2 -15z"/>
<path d="M6753 7613 c-13 -2 -23 -6 -23 -8 0 -15 64 -165 70 -165 14 0 69 69
76 95 3 13 2 37 -3 52 -8 25 -15 28 -54 29 -24 1 -54 0 -66 -3z"/>
<path d="M5932 6957 c-47 -48 -52 -57 -52 -98 0 -40 7 -55 56 -120 30 -41 59
-78 63 -82 12 -12 254 111 248 126 -2 7 -27 60 -53 119 l-49 108 -80 0 -81 0
-52 -53z"/>
<path d="M2300 6824 c0 -14 3 -14 15 -4 8 7 15 14 15 16 0 2 -7 4 -15 4 -8 0
-15 -7 -15 -16z"/>
<path d="M2260 6784 c0 -9 5 -14 12 -12 18 6 21 28 4 28 -9 0 -16 -7 -16 -16z"/>
<path d="M2500 6283 c-55 -5 -70 -17 -70 -54 0 -29 1 -29 60 -29 l60 0 0 45
c0 25 -1 44 -2 43 -2 -1 -23 -3 -48 -5z"/>
<path d="M1124 6063 c-15 -3 -30 -22 -48 -64 -14 -33 -26 -68 -26 -77 0 -26
51 -72 79 -72 43 0 100 20 110 38 20 39 23 102 6 128 -15 23 -73 56 -92 53 -4
-1 -18 -4 -29 -6z"/>
<path d="M4673 5765 c-197 -53 -326 -208 -348 -416 -30 -288 186 -530 473
-529 174 1 329 88 406 229 l27 51 -73 0 -74 0 -31 -44 c-62 -88 -140 -126
-259 -126 -141 0 -245 64 -306 188 -32 64 -33 72 -33 182 0 110 1 118 33 182
60 122 166 188 301 188 123 0 216 -46 271 -135 21 -35 23 -35 91 -35 80 0 83
5 40 72 -104 164 -323 245 -518 193z"/>
<path d="M2500 5300 l0 -470 230 0 230 0 0 50 0 50 -165 0 -165 0 0 420 0 420
-65 0 -65 0 0 -470z"/>
<path d="M3375 5761 c-8 -13 -335 -914 -335 -923 0 -5 28 -8 63 -8 l62 0 36
103 36 102 208 0 208 0 36 -102 36 -103 64 0 c55 0 63 2 59 18 -9 31 -320 886
-329 905 -8 13 -23 17 -74 17 -35 0 -66 -4 -70 -9z m154 -381 c45 -124 81
-228 81 -232 0 -5 -74 -8 -165 -8 -91 0 -165 3 -165 7 0 11 163 463 166 461 1
-2 39 -104 83 -228z"/>
<path d="M5693 5758 c-5 -7 -74 -191 -153 -408 -78 -217 -153 -423 -166 -458
l-23 -63 66 3 67 3 36 100 35 100 207 3 206 2 37 -105 38 -105 64 0 c58 0 64
2 59 18 -4 10 -80 221 -169 468 l-163 449 -65 3 c-45 2 -69 -1 -76 -10z m159
-392 c43 -121 76 -221 74 -223 -2 -2 -77 -2 -168 -1 l-164 3 68 190 c100 279
101 281 106 265 3 -8 40 -114 84 -234z"/>
<path d="M6320 5301 l0 -471 204 0 c178 0 212 3 271 21 191 59 245 281 99 409
-20 17 -50 37 -66 42 l-29 10 43 28 c78 49 108 104 108 192 -1 96 -49 166
-145 210 -46 21 -66 23 -267 26 l-218 4 0 -471z m429 341 c54 -27 75 -64 75
-127 0 -63 -20 -97 -74 -126 -29 -16 -57 -19 -172 -19 l-138 0 0 145 0 145
138 0 c111 0 144 -3 171 -18z m21 -408 c108 -63 108 -217 0 -271 -40 -21 -59
-23 -187 -23 l-143 0 0 161 0 161 148 -4 c126 -3 152 -6 182 -24z"/>
<path d="M7150 5296 l0 -476 60 0 60 0 0 195 0 196 77 -3 77 -3 96 -165 c139
-242 119 -220 195 -220 39 0 65 4 65 10 0 6 -50 95 -110 197 -61 102 -109 187
-108 188 2 2 27 13 55 25 58 25 114 79 139 137 11 24 17 66 18 113 0 65 -4 82
-29 129 -34 62 -73 94 -147 123 -45 18 -82 22 -250 26 l-198 5 0 -477z m419
339 c55 -32 75 -67 78 -138 3 -50 0 -69 -19 -101 -39 -68 -73 -80 -225 -84
l-133 -4 0 177 0 177 133 -4 c110 -2 138 -6 166 -23z"/>
<path d="M8255 5761 c-8 -13 -335 -914 -335 -923 0 -5 28 -8 63 -8 l62 0 36
103 36 102 208 0 208 0 36 -102 36 -103 64 0 c55 0 63 2 59 18 -9 31 -320 886
-329 905 -8 13 -23 17 -74 17 -35 0 -66 -4 -70 -9z m154 -381 c45 -124 81
-228 81 -232 0 -5 -74 -8 -165 -8 -91 0 -165 3 -165 7 0 11 163 463 166 461 1
-2 39 -104 83 -228z"/>
<path d="M9229 5051 c-23 -18 -23 -20 -6 -38 21 -24 22 -33 2 -33 -11 0 -15
-11 -15 -39 0 -30 -6 -44 -22 -55 -12 -9 -19 -19 -15 -22 4 -4 15 0 24 8 27
23 52 29 74 18 29 -16 24 -34 -32 -116 -55 -82 -49 -79 -133 -58 -24 6 -26 4
-26 -26 0 -22 9 -41 29 -61 34 -33 56 -37 70 -12 5 10 13 14 17 10 5 -4 -4
-18 -18 -30 -14 -12 -31 -32 -38 -45 -10 -20 -7 -26 22 -50 80 -67 84 -71 66
-72 -10 0 -18 7 -18 15 0 12 -11 7 -40 -16 -22 -18 -38 -35 -35 -37 3 -3 13 2
23 11 33 30 52 22 52 -24 0 -35 3 -40 18 -34 9 4 53 21 97 37 44 17 84 34 88
38 5 4 0 40 -11 79 l-21 72 30 33 c16 19 36 52 44 75 14 41 14 41 -10 41 -13
0 -28 -8 -34 -17 -5 -10 -13 -14 -18 -10 -4 5 1 13 11 19 17 10 13 16 -44 68
-34 33 -59 63 -56 69 4 6 23 11 42 11 19 0 34 4 34 9 0 5 -28 31 -61 58 l-61
48 33 7 c31 6 89 59 89 80 0 4 -29 8 -64 8 -48 0 -70 -5 -87 -19z m104 -348
c-7 -2 -21 -2 -30 0 -10 3 -4 5 12 5 17 0 24 -2 18 -5z"/>
<path d="M9182 5008 c6 -18 28 -21 28 -4 0 9 -7 16 -16 16 -9 0 -14 -5 -12
-12z"/>
<path d="M9390 4966 c0 -8 5 -18 10 -21 6 -3 10 3 10 14 0 12 -4 21 -10 21 -5
0 -10 -6 -10 -14z"/>
<path d="M9470 4791 c0 -46 2 -52 15 -41 19 16 19 51 0 76 -13 17 -14 15 -15
-35z"/>
<path d="M8991 4743 c1 -10 4 -31 8 -46 l6 -28 45 45 44 46 -52 0 c-43 0 -52
-3 -51 -17z"/>
<path d="M2360 4330 l0 -202 104 4 c87 2 109 7 133 24 55 41 53 138 -5 168
-24 13 -24 13 -5 27 50 35 56 94 14 141 -29 33 -30 33 -135 36 l-106 4 0 -202z
m204 128 c22 -31 20 -45 -9 -73 -20 -21 -34 -25 -85 -25 l-60 0 0 60 0 60 69
0 c61 0 72 -3 85 -22z m6 -175 c24 -30 20 -69 -7 -90 -10 -8 -46 -13 -85 -13
l-68 0 0 65 0 65 69 0 c64 0 71 -2 91 -27z"/>
<path d="M2836 4522 c-8 -13 -136 -375 -136 -384 0 -4 11 -8 24 -8 18 0 27 9
40 45 l18 45 88 0 87 0 13 -45 c11 -40 16 -45 41 -45 l28 0 -50 143 c-28 78
-60 168 -71 200 -18 51 -23 57 -48 57 -16 0 -31 -4 -34 -8z m69 -161 l33 -91
-70 0 c-52 0 -69 3 -66 13 3 6 18 49 34 94 15 45 30 80 32 78 2 -2 19 -44 37
-94z"/>
<path d="M3100 4330 l0 -200 30 0 30 0 0 88 1 87 82 -88 c65 -69 88 -87 110
-87 30 0 35 11 12 30 -9 7 -47 48 -86 91 l-71 79 88 98 c88 97 88 97 59 100
-31 4 -33 2 -147 -127 l-48 -53 0 91 0 91 -30 0 -30 0 0 -200z"/>
<path d="M3450 4330 l0 -200 111 0 c109 0 110 0 107 23 -3 20 -9 22 -85 25
l-83 3 0 64 0 65 76 0 c72 0 75 1 72 23 -3 20 -9 22 -75 25 l-73 3 0 59 0 59
83 3 c76 3 82 5 85 26 3 22 2 22 -107 22 l-111 0 0 -200z"/>
<path d="M3750 4330 l0 -200 25 0 c25 0 25 1 25 81 l0 80 32 -3 c29 -3 38 -12
78 -80 39 -68 48 -78 72 -78 16 0 28 2 28 5 0 2 -21 38 -46 80 -25 42 -45 77
-43 78 2 2 17 9 32 17 53 26 73 101 42 159 -22 43 -70 61 -164 61 l-81 0 0
-200z m180 140 c36 -19 34 -97 -4 -122 -6 -4 -37 -8 -68 -8 l-58 0 0 70 0 70
56 0 c30 0 64 -4 74 -10z"/>
<path d="M4134 4406 c65 -121 66 -125 66 -200 0 -74 1 -76 25 -76 24 0 25 2
25 70 0 67 4 77 65 200 l65 130 -28 0 c-25 0 -32 -9 -77 -100 l-50 -101 -50
101 c-45 91 -52 100 -78 100 l-28 0 65 -124z"/>
<path d="M4659 4501 c-34 -34 -35 -49 -12 -99 14 -30 15 -36 3 -40 -29 -10
-69 -60 -75 -95 -9 -46 18 -103 58 -124 44 -23 143 -14 186 16 l32 23 28 -26
c16 -15 39 -26 55 -26 l28 0 -40 48 -40 47 34 58 33 57 -29 0 c-23 0 -33 -8
-51 -40 l-23 -41 -78 78 c-81 80 -96 115 -64 143 22 17 60 8 71 -17 14 -32 55
-31 55 0 0 39 -39 67 -94 67 -39 0 -53 -5 -77 -29z m151 -283 c0 -16 -65 -48
-96 -48 -82 0 -115 92 -52 145 l31 26 59 -58 c32 -31 58 -61 58 -65z"/>
<path d="M5265 4513 c-72 -37 -105 -94 -105 -178 0 -68 17 -111 59 -150 54
-52 125 -67 204 -43 43 13 107 69 107 93 0 28 -47 16 -83 -20 -31 -31 -41 -35
-88 -35 -93 0 -149 56 -149 149 0 139 147 213 239 121 28 -28 81 -42 81 -21 0
18 -50 69 -84 85 -44 21 -141 20 -181 -1z"/>
<path d="M5715 4517 c-40 -19 -90 -76 -105 -123 -41 -125 59 -264 189 -264
154 1 246 156 176 296 -35 69 -80 98 -164 101 -40 2 -78 -2 -96 -10z m152 -44
c70 -33 100 -127 65 -204 -31 -70 -53 -84 -132 -84 -79 0 -101 14 -132 84 -61
134 68 266 199 204z"/>
<path d="M6070 4330 l0 -200 30 0 30 0 0 90 0 90 71 0 c67 0 70 1 67 23 -3 20
-9 22 -70 25 l-68 3 0 59 0 60 85 0 c84 0 85 0 85 25 l0 25 -115 0 -115 0 0
-200z"/>
<path d="M6370 4330 l0 -200 25 0 c25 0 25 1 25 90 l0 90 71 0 c67 0 70 1 67
23 -3 20 -9 22 -70 25 l-68 3 0 59 0 60 85 0 c84 0 85 0 85 25 l0 25 -110 0
-110 0 0 -200z"/>
<path d="M6660 4330 l0 -200 105 0 105 0 0 25 c0 25 -1 25 -80 25 l-80 0 0 65
0 65 70 0 c68 0 70 1 70 25 0 24 -2 25 -70 25 l-70 0 0 60 0 60 80 0 c79 0 80
0 80 25 l0 25 -105 0 -105 0 0 -200z"/>
<path d="M6950 4330 l0 -200 110 0 110 0 0 25 c0 25 -1 25 -80 25 l-80 0 0 65
0 65 70 0 c68 0 70 1 70 25 0 24 -2 25 -70 25 l-70 0 0 60 0 60 80 0 c79 0 80
0 80 25 l0 25 -110 0 -110 0 0 -200z"/>
<path d="M7455 4518 c-36 -19 -55 -52 -55 -95 0 -52 35 -84 117 -108 70 -20
93 -39 93 -75 0 -38 -29 -60 -78 -60 -41 0 -82 25 -82 50 0 6 -11 10 -25 10
-50 0 -19 -71 41 -96 113 -47 234 39 194 137 -14 33 -47 53 -124 76 -61 18
-86 38 -86 70 0 64 91 86 140 33 27 -28 70 -41 70 -20 0 23 -24 58 -50 73 -32
19 -124 22 -155 5z"/>
<path d="M7750 4330 l0 -200 25 0 c25 0 25 1 25 90 l0 90 100 0 100 0 0 -90 0
-90 30 0 30 0 0 200 0 200 -30 0 -30 0 0 -85 0 -85 -100 0 -100 0 0 85 c0 84
0 85 -25 85 l-25 0 0 -200z"/>
<path d="M8218 4501 c-109 -70 -119 -239 -19 -324 93 -78 248 -51 301 52 43
85 35 172 -23 238 -41 46 -82 63 -155 63 -47 0 -67 -6 -104 -29z m170 -25 c55
-29 76 -62 80 -130 7 -109 -43 -166 -145 -166 -44 0 -58 5 -87 30 -109 96 -48
278 92 280 18 0 45 -6 60 -14z"/>
<path d="M8600 4330 l0 -200 30 0 30 0 0 79 0 78 59 6 c107 12 142 40 143 116
1 85 -53 121 -182 121 l-80 0 0 -200z m192 133 c24 -22 24 -77 -2 -103 -15
-15 -33 -20 -75 -20 l-55 0 0 70 0 70 57 0 c38 0 62 -5 75 -17z"/>
<path d="M752 4380 c-23 -32 -42 -64 -42 -70 0 -16 86 -12 100 4 12 16 4 126
-9 126 -4 0 -26 -27 -49 -60z"/>
<path d="M9424 4398 c3 -13 6 -31 6 -40 0 -10 7 -18 15 -18 11 0 15 11 15 40
0 34 -3 40 -21 40 -17 0 -20 -4 -15 -22z"/>
<path d="M9350 4310 c0 -11 5 -20 10 -20 6 0 10 9 10 20 0 11 -4 20 -10 20 -5
0 -10 -9 -10 -20z"/>
<path d="M9186 4181 c-10 -11 -28 -22 -42 -25 -44 -11 -29 -65 29 -101 31 -20
33 -14 12 45 -20 57 -19 60 14 60 33 0 38 -6 51 -51 7 -24 4 -34 -15 -56 l-23
-28 31 -42 c17 -24 33 -43 36 -43 13 1 113 192 105 200 -13 13 -141 60 -163
60 -10 0 -26 -9 -35 -19z"/>
<path d="M9090 3880 c0 -11 5 -20 10 -20 6 0 10 9 10 20 0 11 -4 20 -10 20 -5
0 -10 -9 -10 -20z"/>
<path d="M9180 3750 c-19 -38 -37 -70 -41 -70 -4 0 -15 10 -23 22 -9 12 -19
19 -22 15 -4 -4 0 -15 9 -25 16 -18 16 -20 -3 -37 -20 -18 -22 -18 -50 -1
l-30 17 -116 -61 c-63 -34 -118 -69 -121 -77 -3 -8 4 -35 16 -59 11 -25 21
-50 21 -57 -1 -6 -19 -21 -42 -32 -34 -16 -44 -28 -53 -62 -16 -54 -43 -93
-122 -174 l-65 -66 15 -119 c9 -68 24 -140 36 -167 36 -83 25 -117 -27 -81
-12 8 -26 13 -31 10 -4 -3 -11 -37 -13 -75 -5 -61 -10 -75 -37 -106 -17 -19
-59 -77 -93 -128 -70 -104 -135 -177 -184 -208 -32 -19 -34 -24 -34 -73 0 -40
-5 -57 -20 -71 -19 -18 -22 -18 -56 -1 -20 9 -38 15 -40 13 -2 -2 -15 -37 -29
-77 -14 -41 -35 -84 -47 -97 -12 -13 -17 -23 -11 -23 6 0 16 7 23 15 7 9 29
15 51 15 28 0 42 6 53 22 9 12 19 18 23 14 4 -4 -1 -14 -11 -22 -18 -13 -16
-19 55 -125 l74 -112 20 28 c79 110 79 110 123 113 29 2 45 9 49 20 9 25 190
214 227 237 26 17 30 25 28 52 -5 48 22 89 94 140 53 39 75 64 125 145 33 55
87 127 118 161 63 67 79 94 105 174 9 28 35 72 57 96 37 43 39 48 39 111 0 66
7 79 30 51 18 -21 30 -19 62 12 27 25 27 27 11 46 -12 13 -20 43 -24 98 -4 56
-11 84 -24 99 -17 19 -19 19 -37 4 -10 -10 -18 -12 -18 -6 0 6 8 17 18 24 10
7 26 43 36 80 l18 67 -26 47 -26 46 49 21 50 20 -51 24 c-28 13 -63 34 -79 48
l-30 24 56 37 c30 20 55 40 55 43 0 8 -63 71 -71 71 -3 0 -20 -31 -39 -70z
m-497 -647 c-7 -2 -19 -2 -25 0 -7 3 -2 5 12 5 14 0 19 -2 13 -5z m127 -38 c0
-10 -11 -15 -35 -15 -39 0 -48 16 -12 23 41 8 47 7 47 -8z m-180 -390 c7 -8 8
-15 2 -15 -5 0 -15 7 -22 15 -7 8 -8 15 -2 15 5 0 15 -7 22 -15z m96 -232 c-7
-7 -26 7 -26 19 0 6 6 6 15 -2 9 -7 13 -15 11 -17z m-177 -33 c-11 -30 -29
-41 -29 -18 0 10 28 48 36 48 2 0 -2 -13 -7 -30z m211 -9 c15 -28 12 -51 -5
-51 -8 0 -15 9 -15 19 0 11 -3 26 -6 35 -9 23 13 20 26 -3z m-256 -76 c-4 -8
-11 -15 -16 -15 -6 0 -5 6 2 15 7 8 14 15 16 15 2 0 1 -7 -2 -15z m16 -85 c0
-5 -20 -10 -45 -10 -25 0 -45 5 -45 10 0 6 20 10 45 10 25 0 45 -4 45 -10z
m-50 -90 c0 -5 -9 -10 -20 -10 -11 0 -20 5 -20 10 0 6 9 10 20 10 11 0 20 -4
20 -10z m-200 -99 c82 -28 84 -29 57 -40 -40 -16 -61 -14 -112 11 -29 14 -45
29 -45 40 0 23 1 23 100 -11z m-110 -20 c0 -17 -18 -21 -24 -6 -3 9 0 15 9 15
8 0 15 -4 15 -9z m46 -108 c-7 -7 -26 7 -26 19 0 6 6 6 15 -2 9 -7 13 -15 11
-17z m74 2 c-7 -9 -15 -13 -18 -10 -3 2 1 11 8 20 7 9 15 13 18 10 3 -2 -1
-11 -8 -20z m190 0 c0 -8 -7 -15 -15 -15 -16 0 -20 12 -8 23 11 12 23 8 23 -8z
m-225 -25 c-3 -5 -10 -10 -16 -10 -5 0 -9 5 -9 10 0 6 7 10 16 10 8 0 12 -4 9
-10z m185 -5 c0 -8 -4 -15 -9 -15 -13 0 -22 16 -14 24 11 11 23 6 23 -9z m-90
-55 c0 -5 -7 -10 -16 -10 -8 0 -12 5 -9 10 3 6 10 10 16 10 5 0 9 -4 9 -10z
m-40 -36 c0 -14 -3 -14 -15 -4 -8 7 -15 14 -15 16 0 2 7 4 15 4 8 0 15 -7 15
-16z"/>
<path d="M8102 1720 c0 -14 2 -19 5 -12 2 6 2 18 0 25 -3 6 -5 1 -5 -13z"/>
<path d="M8062 1630 c0 -14 2 -19 5 -12 2 6 2 18 0 25 -3 6 -5 1 -5 -13z"/>
<path d="M8192 1630 c0 -14 2 -19 5 -12 2 6 2 18 0 25 -3 6 -5 1 -5 -13z"/>
<path d="M7927 1586 c-4 -10 -1 -16 8 -16 8 0 15 -9 15 -20 0 -16 7 -20 33
-20 17 0 38 4 46 9 22 14 3 31 -36 31 -22 0 -41 6 -48 16 -11 16 -12 16 -18 0z"/>
<path d="M7880 1556 c0 -2 7 -9 15 -16 12 -10 15 -10 15 4 0 9 -7 16 -15 16
-8 0 -15 -2 -15 -4z"/>
<path d="M7920 1504 c0 -14 3 -14 15 -4 8 7 15 14 15 16 0 2 -7 4 -15 4 -8 0
-15 -7 -15 -16z"/>
<path d="M7710 1424 c0 -13 58 -69 65 -63 2 3 -11 21 -30 39 -19 19 -35 29
-35 24z"/>
<path d="M7585 1284 c31 -31 58 -54 61 -52 2 3 -5 13 -16 23 -25 23 -25 33 2
62 12 13 17 23 11 23 -6 0 -16 -7 -23 -15 -7 -8 -20 -15 -30 -15 -10 0 -23 7
-30 15 -7 8 -17 15 -22 15 -6 0 15 -25 47 -56z"/>
<path d="M5874 1222 c-30 -34 -32 -35 -55 -19 -39 28 -105 22 -174 -17 -48
-26 -61 -38 -63 -61 -3 -20 0 -26 10 -23 107 40 243 79 245 71 2 -6 10 -19 17
-29 14 -18 16 -18 61 4 45 22 48 22 66 6 11 -9 19 -12 19 -7 0 6 -7 16 -15 23
-13 10 -12 17 5 51 l20 39 -52 -1 c-48 -1 -56 -4 -84 -37z"/>
<path d="M7448 1243 c6 -2 18 -2 25 0 6 3 1 5 -13 5 -14 0 -19 -2 -12 -5z"/>
<path d="M7248 1173 c-26 -4 -28 -7 -28 -56 l0 -52 45 50 c60 68 59 69 -17 58z"/>
<path d="M6702 990 c16 -26 28 -29 58 -18 24 9 24 10 5 17 -11 5 -32 11 -48
15 -26 6 -27 5 -15 -14z"/>
</g>
</svg>
