<?xml version="1.0" standalone="no"?>
<!DOCTYPE svg PUBLIC "-//W3C//DTD SVG 20010904//EN"
 "http://www.w3.org/TR/2001/REC-SVG-20010904/DTD/svg10.dtd">
<svg version="1.0" xmlns="http://www.w3.org/2000/svg"
 width="1080.000000pt" height="1080.000000pt" viewBox="0 0 1080.000000 1080.000000"
 preserveAspectRatio="xMidYMid meet">

<g transform="translate(0.000000,1080.000000) scale(0.100000,-0.100000)"
fill="#000000" stroke="none">
<path d="M2134 8009 c-3 -6 -5 -297 -3 -647 1 -351 3 -738 3 -862 l1 -225 448
-8 c246 -5 454 -6 462 -3 19 7 21 163 2 189 -11 16 -46 18 -341 22 -181 3
-333 8 -338 11 -5 4 -7 301 -4 752 4 672 3 749 -11 765 -13 14 -33 17 -114 17
-59 0 -100 -4 -105 -11z"/>
<path d="M3858 7849 c-16 -9 -30 -42 -48 -119 -28 -115 -41 -168 -49 -190 -11
-30 -87 -314 -112 -420 -10 -41 -36 -136 -59 -210 -65 -215 -160 -563 -160
-587 0 -22 3 -23 110 -23 l109 0 12 43 c34 125 89 366 89 390 l0 27 189 0
c142 0 191 -3 199 -13 6 -7 16 -42 21 -77 6 -36 23 -119 37 -185 14 -66 28
-135 31 -153 7 -43 31 -52 132 -52 54 0 82 4 90 14 10 12 -27 177 -93 416 -9
30 -22 84 -30 120 -16 69 -70 291 -111 450 -55 215 -77 309 -90 380 -19 106
-35 168 -49 178 -17 14 -198 23 -218 11z m122 -367 c0 -20 9 -77 21 -127 51
-225 71 -311 79 -330 5 -11 11 -38 15 -59 l6 -39 -53 6 c-29 4 -95 7 -147 7
-92 0 -93 0 -88 23 2 12 21 85 42 162 49 188 85 343 85 370 0 27 8 35 26 28 8
-3 14 -19 14 -41z"/>
<path d="M2445 5941 c-117 -29 -243 -139 -299 -263 -48 -106 -72 -187 -95
-327 -26 -153 -28 -407 -6 -562 19 -129 72 -296 119 -376 60 -101 168 -180
288 -208 68 -17 85 -17 163 -6 145 22 284 108 366 227 36 53 36 73 2 105 -37
34 -123 89 -139 89 -6 0 -40 -31 -73 -69 -34 -39 -83 -84 -108 -100 -40 -27
-55 -31 -114 -31 -61 0 -72 3 -111 33 -50 38 -98 113 -121 189 -80 256 -52
772 51 961 17 31 46 63 81 88 45 33 62 39 103 39 80 0 138 -31 189 -102 69
-94 86 -110 111 -102 25 8 115 60 141 82 9 8 17 24 17 35 0 55 -129 210 -209
252 -79 40 -143 55 -235 54 -50 -1 -104 -4 -121 -8z"/>
<path d="M3922 5884 c-23 -20 -41 -74 -107 -329 -37 -139 -47 -176 -64 -237
-5 -18 -17 -62 -26 -98 -8 -36 -24 -88 -35 -117 -11 -28 -30 -93 -44 -145 -40
-154 -95 -343 -152 -530 -30 -97 -54 -185 -54 -195 0 -36 20 -43 122 -43 97 0
98 0 116 29 9 15 25 68 35 117 10 49 27 122 37 161 11 40 20 81 20 90 0 10 9
41 19 68 l19 50 180 3 c99 1 191 -2 205 -7 17 -7 26 -19 30 -43 3 -18 12 -73
21 -123 9 -49 21 -121 27 -160 27 -174 32 -188 68 -197 17 -5 69 -7 114 -6 76
3 82 5 85 25 3 23 -37 209 -88 408 -26 104 -45 186 -139 595 -22 96 -54 234
-70 305 -17 72 -39 182 -51 245 -11 63 -26 120 -33 127 -7 7 -56 15 -112 19
-89 6 -102 4 -123 -12z m128 -416 c6 -40 20 -116 31 -168 11 -52 31 -151 45
-220 14 -69 28 -139 31 -156 l5 -31 -149 5 c-81 2 -151 7 -155 11 -4 4 4 43
18 86 14 44 38 132 54 195 16 63 36 139 44 169 8 29 18 79 22 110 8 64 10 71
29 71 9 0 17 -24 25 -72z"/>
<path d="M5198 5859 c-9 -5 -19 -21 -22 -37 -3 -15 -8 -193 -11 -397 -3 -203
-10 -503 -15 -665 -14 -419 -13 -585 3 -597 6 -5 121 -8 257 -7 266 1 302 7
400 60 107 58 185 192 201 346 14 138 2 267 -31 337 -34 70 -98 143 -145 165
-19 9 -35 21 -35 26 0 5 15 19 33 32 84 60 121 152 121 303 0 150 -36 241
-133 334 -76 73 -130 91 -295 97 -78 2 -179 6 -226 8 -47 3 -93 0 -102 -5z
m341 -209 c94 -12 141 -42 176 -110 29 -58 33 -138 10 -216 -17 -57 -70 -115
-127 -139 -37 -15 -170 -21 -202 -9 -14 5 -16 36 -16 239 0 177 3 235 13 238
19 8 66 7 146 -3z m132 -699 c88 -54 101 -75 119 -193 21 -127 -10 -255 -81
-342 -43 -52 -109 -70 -224 -63 -50 4 -99 9 -107 12 -15 6 -16 38 -13 305 2
165 6 304 10 311 6 8 42 10 124 7 112 -4 120 -6 172 -37z"/>
<path d="M6665 5833 c-11 -3 -23 -8 -28 -12 -4 -4 -10 -124 -12 -267 -7 -337
-26 -1113 -32 -1277 -3 -90 -1 -133 8 -143 16 -20 192 -20 208 0 8 10 13 121
16 367 2 195 4 357 4 362 1 8 113 10 135 1 13 -5 136 -241 136 -260 0 -6 54
-132 76 -178 8 -16 14 -35 14 -42 0 -12 51 -129 99 -224 24 -48 52 -60 152
-60 104 0 120 11 96 62 -8 18 -26 58 -40 88 -33 73 -90 195 -139 300 -21 47
-43 94 -47 105 -17 42 -57 122 -83 168 -16 27 -26 52 -23 56 2 5 19 14 37 21
49 20 114 75 150 128 18 26 38 53 45 60 42 43 69 302 43 424 -26 119 -132 249
-234 287 -40 14 -92 20 -241 25 -104 4 -219 8 -255 11 -36 2 -74 1 -85 -2z
m465 -225 c50 -16 93 -51 118 -99 18 -34 22 -57 22 -138 0 -54 -4 -111 -9
-127 -5 -16 -12 -41 -15 -57 -9 -39 -71 -104 -114 -119 -41 -13 -271 -16 -292
-3 -10 6 -11 54 -5 229 5 122 9 243 10 269 0 28 6 51 14 56 17 11 227 2 271
-11z"/>
<path d="M8360 5768 c-11 -18 -20 -42 -20 -52 0 -11 -4 -33 -10 -50 -33 -104
-53 -175 -80 -286 -17 -69 -35 -133 -41 -142 -5 -10 -9 -27 -9 -38 0 -11 -4
-28 -9 -38 -14 -27 -31 -87 -31 -107 0 -10 -8 -44 -18 -74 -48 -143 -62 -190
-62 -205 0 -9 -4 -24 -9 -34 -5 -9 -15 -37 -21 -62 -7 -25 -16 -54 -20 -65 -5
-11 -10 -29 -13 -40 -3 -11 -25 -85 -50 -165 -25 -80 -53 -172 -63 -205 -9
-33 -19 -65 -21 -71 -10 -28 26 -42 114 -43 48 0 93 2 99 7 18 12 31 44 44
107 7 33 17 68 22 79 5 10 21 64 34 120 36 150 45 180 56 194 12 14 352 18
390 3 20 -7 26 -21 37 -77 7 -38 16 -89 21 -114 5 -25 14 -85 20 -135 13 -103
29 -174 43 -192 15 -20 201 -18 217 2 13 15 8 43 -36 228 -8 32 -14 69 -14 82
0 13 -4 27 -10 30 -5 3 -10 17 -10 30 0 13 -4 26 -9 29 -4 3 -11 27 -14 53 -6
45 -10 67 -37 173 -5 22 -15 59 -21 83 -5 23 -14 62 -19 87 -12 60 -26 125
-40 180 -18 71 -30 131 -40 185 -4 28 -13 68 -20 90 -18 63 -45 190 -60 290
-17 111 -28 149 -46 162 -12 9 -52 13 -121 13 l-103 0 -20 -32z m150 -417 c0
-44 5 -83 10 -86 6 -3 10 -22 10 -41 0 -19 5 -34 10 -34 6 0 10 -28 10 -64 0
-36 5 -68 10 -71 6 -3 10 -19 10 -35 0 -16 5 -32 10 -35 6 -3 10 -26 10 -51 0
-26 9 -62 21 -86 13 -26 17 -44 11 -50 -13 -13 -304 -10 -316 2 -6 6 -5 18 1
32 7 13 14 37 18 53 15 73 23 102 38 139 10 21 17 48 17 60 0 12 9 46 20 76
12 33 20 80 20 117 0 34 5 65 10 68 6 3 10 19 10 34 0 33 16 51 47 51 22 0 23
-3 23 -79z"/>
<path d="M2064 3793 c-11 -11 -14 -45 -14 -146 -1 -73 -3 -157 -5 -187 -14
-183 -14 -237 -2 -254 11 -15 32 -17 202 -14 209 3 246 13 288 70 48 65 27
192 -35 224 l-30 16 20 21 c55 61 54 165 -3 221 -43 43 -91 54 -268 59 -111 4
-141 2 -153 -10z m354 -130 c26 -28 27 -44 7 -83 -19 -38 -37 -41 -165 -38
l-105 3 -1 60 c-1 96 -2 95 129 89 102 -5 114 -8 135 -31z m-6 -223 c42 -12
58 -34 58 -78 0 -57 -25 -66 -178 -65 l-137 0 -3 63 c-2 35 -1 69 2 76 7 17
201 20 258 4z"/>
<path d="M2983 3782 c-11 -7 -113 -231 -113 -247 0 -3 -16 -40 -36 -82 -80
-173 -105 -244 -93 -259 14 -17 52 -18 80 -3 11 5 27 27 35 49 l16 38 145 -1
c158 -2 149 1 173 -65 14 -35 43 -48 85 -38 34 9 32 34 -11 142 -46 117 -67
174 -115 318 -22 66 -47 128 -56 138 -17 19 -87 25 -110 10z m82 -200 c10 -31
26 -76 37 -100 10 -24 21 -57 25 -73 l6 -29 -112 0 c-61 0 -111 2 -111 5 0 3
13 32 29 63 31 60 50 102 75 165 9 21 20 36 25 33 5 -3 17 -32 26 -64z"/>
<path d="M3516 3767 c-16 -11 -18 -42 -23 -305 l-6 -293 49 3 49 3 5 90 c4 65
10 98 24 118 10 15 22 27 26 27 4 0 23 -19 43 -42 19 -24 47 -56 61 -73 15
-16 33 -42 41 -56 8 -15 29 -39 46 -53 26 -22 40 -26 78 -24 33 2 47 8 49 20
3 17 -221 288 -239 288 -23 0 -1 28 106 137 134 135 142 156 61 161 l-50 3
-93 -98 c-52 -54 -101 -110 -109 -125 -20 -38 -48 -38 -41 0 3 15 9 66 13 113
5 73 4 88 -10 102 -21 20 -55 22 -80 4z"/>
<path d="M4142 3747 c-12 -14 -19 -568 -8 -586 4 -5 91 -9 214 -8 l207 2 3 33
c6 58 -4 62 -168 62 -107 0 -150 3 -157 13 -5 6 -7 42 -5 80 l4 67 113 0 113
0 11 31 c18 51 4 58 -122 61 l-112 3 0 75 0 75 157 -4 157 -4 12 26 c6 14 9
36 5 50 -5 23 -9 24 -133 30 -199 11 -279 9 -291 -6z"/>
<path d="M4780 3740 c-13 -8 -16 -56 -21 -292 -3 -172 -2 -288 4 -295 5 -7 24
-13 43 -13 18 0 36 6 41 13 4 6 8 64 8 127 l0 115 65 3 66 3 63 -123 c35 -68
68 -128 72 -134 26 -32 119 -21 119 14 0 10 -29 66 -65 124 -36 59 -65 111
-65 116 0 5 18 17 39 27 71 32 97 134 57 223 -22 48 -74 79 -146 87 -105 11
-266 14 -280 5z m322 -117 c32 -16 43 -48 29 -85 -15 -39 -45 -50 -146 -56
-124 -6 -135 0 -135 81 0 35 5 68 11 74 16 16 205 5 241 -14z"/>
<path d="M5397 3724 c-11 -11 12 -52 97 -176 l86 -123 0 -151 c0 -129 2 -153
16 -158 31 -12 71 -6 89 14 16 18 17 33 11 154 l-8 134 35 39 c66 74 156 199
163 227 5 19 2 31 -7 37 -20 13 -71 10 -89 -4 -25 -20 -105 -130 -121 -165
-16 -36 -55 -45 -65 -14 -12 38 -61 125 -87 158 -24 29 -35 34 -71 34 -23 0
-45 -3 -49 -6z"/>
</g>
</svg>
